<svg enable-background="new 0 0 130.2 40.1" viewBox="0 0 130.2 40.1" xmlns="http://www.w3.org/2000/svg"><g fill="#fff"><path d="m61.6 33.6c-1.8 0-3.5-.3-5.1-1-1.6-.6-3-1.5-4.2-2.7-1.2-1.1-2.1-2.4-2.8-3.9s-1-3.1-1-4.8.3-3.3 1-4.8 1.6-2.8 2.8-3.9 2.6-2 4.2-2.7c1.6-.6 3.3-1 5.1-1 1.5 0 2.9.2 4.2.6s2.5 1 3.4 1.6l-2 4c-.6-.5-1.4-.9-2.4-1.2-.9-.3-1.9-.4-2.9-.4-1.2 0-2.3.2-3.3.6s-1.9.9-2.6 1.6-1.3 1.5-1.7 2.5c-.4.9-.6 2-.6 3.1s.2 2.1.6 3.1c.4.9 1 1.8 1.7 2.5s1.6 1.3 2.6 1.6c1 .4 2.1.6 3.3.6 1 0 2-.1 2.9-.4s1.7-.7 2.4-1.2l2 4c-.9.7-2 1.2-3.3 1.6-1.4.3-2.8.6-4.3.6z"/><path d="m72.3 33.1v-14.8h4.4v2.1c.5-.8 1.2-1.5 2-1.9s1.7-.7 2.6-.7c.5 0 1.1.1 1.6.2.6.2 1 .4 1.4.6l-1.9 3.7c-.3-.2-.7-.4-1.2-.5-.4-.1-.8-.2-1.2-.2-.6 0-1.1.2-1.6.4-.5.3-.9.7-1.3 1.2-.3.5-.5 1-.5 1.5v8.3z"/><path d="m92.8 33.6c-1.4 0-2.6-.3-3.7-1s-2-1.6-2.6-2.8c-.7-1.2-1-2.5-1-4.1 0-1.5.3-2.8.9-4s1.5-2.1 2.6-2.8 2.4-1 3.8-1c1.1 0 2 .2 2.9.6s1.7 1 2.2 1.7v-1.8h4.4v14.8h-4.4v-2c-.7.8-1.5 1.4-2.3 1.8-.9.3-1.8.6-2.8.6zm1.3-3.8c.8 0 1.5-.2 2.1-.5s1.1-.8 1.4-1.5c.3-.6.5-1.3.5-2.1s-.2-1.5-.5-2.1-.8-1.1-1.4-1.4c-.6-.4-1.3-.5-2-.5-.8 0-1.4.2-2 .5-.6.4-1.1.8-1.4 1.5-.3.6-.5 1.3-.5 2.1s.2 1.5.5 2.1.8 1.1 1.4 1.5 1.1.4 1.9.4z"/><path d="m108.1 33.1v-11.4h-2v-3.4h2v-3.7c0-1.4.2-2.6.7-3.6.4-1 1.1-1.8 1.9-2.4s1.8-.8 2.9-.8c.7 0 1.4.1 2.1.3s1.3.5 1.8.9l-1.5 3.1c-.5-.3-1-.4-1.5-.4s-.9.1-1.1.4-.4.6-.5 1.1c-.1.4-.1 1-.1 1.6v3.6h3.5v3.4h-3.5v11.4z"/><path d="m124.4 33.6c-1.5 0-2.6-.5-3.4-1.4s-1.2-2.3-1.2-3.9v-6.6h-2v-3.4h2v-5.6h4.4v5.6h3.3v3.4h-3.3v6.2c0 .6.1 1 .3 1.3s.5.4 1 .4.9-.2 1.3-.5l1.1 3.6c-.5.3-1.1.5-1.7.6-.6.2-1.2.3-1.8.3z"/><path d="m34.2 1.8h-28.4c-2 0-3.6 1.9-3.6 3.6v28.8c0 2 1.9 3.6 3.6 3.6h28.7c2 0 3.6-1.9 3.6-3.6v-28.7c-.1-2.3-1.6-3.7-3.9-3.7zm-16 28.7v-3.6c3.7-.2 6.6-3.1 6.6-6.9 0-2-.8-3.8-1.9-5.1-1.3-1.3-3-2-4.9-2v13.7c-3.7-.2-6.6-3.1-6.6-6.9 0-1.9.8-3.7 1.9-4.9 1.3-1.3 3-1.9 4.9-1.9v-3.9c5.7-.3 10.5 4.6 10.8 10.8 0 5.9-4.8 10.7-10.8 10.7z"/></g></svg>