<svg enable-background="new 0 0 1920 791" viewBox="0 0 1920 791" xmlns="http://www.w3.org/2000/svg"><g fill="#4e11be"><path d="m1625 205c27.6 0 50 22.4 50 50s-22.4 50-50 50-50-22.4-50-50 22.4-50 50-50z"/><path d="m992 602c27.6 0 50 22.4 50 50s-22.4 50-50 50-50-22.4-50-50 22.4-50 50-50z"/><path d="m1242 624 188-204 468 371h-445z"/><path d="m1339 386c76.8 0 139 62.2 139 139s-62.2 139-139 139-139-62.2-139-139 62.2-139 139-139z"/><path d="m1026.5-188c145 0 262.5 117.5 262.5 262.5s-117.5 262.5-262.5 262.5-262.5-117.5-262.5-262.5 117.5-262.5 262.5-262.5z"/><path d="m163.7 323.6 193.5 248.8c20.9 26.8 16 65.5-10.8 86.4l-234.7 182.4c-26.8 20.9-65.5 16-86.4-10.8l-193.5-248.8c-20.9-26.8-16-65.5 10.8-86.4l234.7-182.4c26.8-20.9 65.5-16.1 86.4 10.8z"/><path d="m273 105c27.6 0 50 22.4 50 50s-22.4 50-50 50-50-22.4-50-50 22.4-50 50-50z"/></g></svg>