<svg enable-background="new 0 0 1920 791" viewBox="0 0 1920 791" xmlns="http://www.w3.org/2000/svg"><g fill="#7e57ff"><path d="m994.6 602.1c-29.7-1.5-54 22.9-52.5 52.5 1.3 25.4 21.9 46 47.3 47.3 29.7 1.5 54-22.9 52.5-52.5-1.3-25.4-21.9-46-47.3-47.3zm-.3 85.1c-21.3 1.3-38.9-16.2-37.5-37.5 1.1-17.6 15.4-31.8 32.9-32.9 21.3-1.3 38.9 16.2 37.5 37.5-1.1 17.6-15.3 31.8-32.9 32.9z"/><path d="m1631.2 195.5c-29.7-1.5-54 22.9-52.5 52.5 1.3 25.4 21.9 46 47.3 47.3 29.7 1.5 54-22.9 52.5-52.5-1.3-25.3-21.9-46-47.3-47.3zm-.3 85.2c-21.3 1.3-38.9-16.2-37.5-37.5 1.1-17.6 15.4-31.8 32.9-32.9 21.3-1.3 38.9 16.2 37.5 37.5-1.1 17.5-15.4 31.8-32.9 32.9z"/><path d="m1242 624 188-204 468 371h-445z"/><path d="m1339 386c76.8 0 139 62.2 139 139s-62.2 139-139 139-139-62.2-139-139 62.2-139 139-139z"/><path d="m-8.7 322.1 267.9 344.3c20.4 26.2 15.6 63.9-10.5 84.2l-328.3 255.3-304.6-391.6z"/><path d="m255.9 124.3 17.4 64.8c1 3.9 6.2 4.7 8.4 1.3l24.3-37.9c1.4-2.2.8-5-1.4-6.4l-41.7-26.8c-3.6-2.4-8.1.9-7 5z"/></g></svg>